<svg id="Capa_1" enable-background="new 0 0 512 512" height="512" viewBox="0 0 512 512" width="512" xmlns="http://www.w3.org/2000/svg"><g><path d="m494.487 454.51h-476.974c-9.672 0-17.513-7.841-17.513-17.513v-361.994c0-9.672 7.841-17.513 17.513-17.513h476.974c9.672 0 17.513 7.841 17.513 17.513v361.994c0 9.672-7.841 17.513-17.513 17.513z" fill="#ecbe6b"/><path d="m38.117 408.152v-304.304c0-4.552 3.69-8.241 8.241-8.241h419.284c4.552 0 8.241 3.69 8.241 8.241v304.304c0 4.552-3.69 8.241-8.241 8.241h-419.284c-4.551 0-8.241-3.689-8.241-8.241z" fill="#407093"/><path d="m494.487 57.49h-26.282c9.672 0 17.513 7.841 17.513 17.513v361.994c0 9.672-7.841 17.513-17.513 17.513h26.282c9.672 0 17.513-7.841 17.513-17.513v-361.994c0-9.673-7.841-17.513-17.513-17.513z" fill="#eab14d"/><path d="m214.347 335.587h-131.177c-5.69 0-10.302-4.612-10.302-10.302v-183.211c0-5.69 4.612-10.302 10.302-10.302h131.176c5.69 0 10.302 4.612 10.302 10.302v183.211c0 5.689-4.612 10.302-10.301 10.302z" fill="#e7ecf6"/><path d="m431.92 307.223h-84.475c-3.983 0-7.211-3.229-7.211-7.211v-84.475c0-3.983 3.229-7.211 7.211-7.211h84.475c3.983 0 7.211 3.229 7.211 7.211v84.475c.001 3.982-3.228 7.211-7.211 7.211z" fill="#e28086"/><circle cx="108.627" cy="181.921" fill="#78c2a4" r="7.726"/><g><path d="m198.227 189.648h-56.799c-4.267 0-7.726-3.459-7.726-7.726 0-4.268 3.459-7.726 7.726-7.726h56.799c4.267 0 7.726 3.459 7.726 7.726s-3.459 7.726-7.726 7.726z" fill="#78c2a4"/></g><circle cx="108.627" cy="216.964" fill="#78c2a4" r="7.726"/><g><path d="m198.227 224.69h-56.799c-4.267 0-7.726-3.459-7.726-7.726 0-4.268 3.459-7.726 7.726-7.726h56.799c4.267 0 7.726 3.459 7.726 7.726s-3.459 7.726-7.726 7.726z" fill="#78c2a4"/></g><circle cx="108.627" cy="252.006" fill="#78c2a4" r="7.726"/><g><path d="m198.227 259.732h-56.799c-4.267 0-7.726-3.459-7.726-7.726s3.459-7.726 7.726-7.726h56.799c4.267 0 7.726 3.459 7.726 7.726s-3.459 7.726-7.726 7.726z" fill="#78c2a4"/></g><circle cx="108.627" cy="287.048" fill="#78c2a4" r="7.726"/><g><path d="m198.227 294.775h-56.799c-4.267 0-7.726-3.459-7.726-7.726s3.459-7.726 7.726-7.726h56.799c4.267 0 7.726 3.459 7.726 7.726s-3.459 7.726-7.726 7.726z" fill="#78c2a4"/></g><circle cx="389.683" cy="231.611" fill="#e7ecf6" r="7.726"/><path d="m358.915 380.228h-84.475c-3.983 0-7.211-3.229-7.211-7.211v-84.475c0-3.983 3.229-7.211 7.211-7.211h84.475c3.983 0 7.211 3.229 7.211 7.211v84.475c.001 3.982-3.228 7.211-7.211 7.211z" fill="#b3e59f"/><circle cx="316.678" cy="307.223" fill="#e7ecf6" r="7.726"/><path d="m465.642 95.607h-26.282c4.552 0 8.241 3.69 8.241 8.241v304.304c0 4.552-3.69 8.241-8.241 8.241h26.282c4.552 0 8.241-3.69 8.241-8.241v-304.304c0-4.551-3.69-8.241-8.241-8.241z" fill="#365e7d"/></g></svg>