<svg id="Layer_1" enable-background="new 0 0 512 512" height="512" viewBox="0 0 512 512" width="512" xmlns="http://www.w3.org/2000/svg"><g><g><g><g><g><path d="m117.189 57.192h199.157v301.591h-199.157z" fill="#ffb938"/><path d="m313.848 57.192h190.652v300.022h-190.652z" fill="#ffe645"/><path d="m464.5 57.192h40v196.908h-40z" fill="#f5d60c"/><path d="" fill="none"/><g><path d="m427.618 136.744 36.897-36.869-73.804.009-36.888 36.86z" fill="#365dca"/><path d="m353.823 136.744h73.795v73.701h-73.795z" fill="#fff"/><path d="m427.618 210.445 36.907-36.879-.01-73.691-36.897 36.869z" fill="#ffb938"/></g><path d="m313.848 254.1h190.652v104.683h-190.652z" fill="#fff6db"/><path d="m464.5 254.1h40v104.683h-40z" fill="#f7eccb"/></g><g><path d="m216.471 7.5h46.792v206.945h-46.792z" fill="#86db7b"/><path d="m240.263 7.5h23v206.945h-23z" fill="#6dd45f"/></g></g><g><g><path d="m88.598 418.44c0 15.806-18.154 28.62-40.549 28.62s-40.474-13.296-40.474-32.171c0-15.806-.075-57.674-.075-57.674h81.098z" fill="#ffb938"/><g><path d="m48.049 87.463c22.395 0 40.549 9.969 40.549 22.266v305.16c0-12.297-18.154-22.266-40.549-22.266-2.354 0-4.658.116-6.902.328v-305.16c2.245-.212 4.548-.328 6.902-.328z" fill="#ffe645"/></g><g><path d="m54.951 64.979c-22.394 0-47.451 17.233-47.451 45.667v304.243c0-48.549 47.451-47.041 47.451-47.041z" fill="#fff6db"/></g></g><g><path d="m169.848 475.873c.003 15.806-18.15 28.623-40.544 28.627-22.395.004-40.476-13.29-40.48-32.165-.003-15.806-.084-57.674-.084-57.674l81.098-.014c0 .001.008 49.371.01 61.226z" fill="#ffb938"/><g><path d="m129.246 144.903c22.395-.004 40.551 9.962 40.553 22.259l.049 305.16c-.002-12.297-18.158-22.263-40.553-22.259-2.354 0-4.658.117-6.902.329l-.049-305.16c2.245-.212 4.548-.329 6.902-.329z" fill="#ffe645"/></g><g><path d="m136.145 122.418c-22.395.004-47.448 17.241-47.444 45.675l.049 304.243c-.008-48.549 47.443-47.049 47.443-47.049z" fill="#fff6db"/></g></g></g></g><path d="m240.15 504.5h225.867v-192.305zm189.44-36.382h-90.556l90.556-77.1z" fill="#ffe645"/><g><path d="m429.28 343.473v47.808l.31-.263v77.1h-.31v36.382h36.738v-192.305z" fill="#f5d60c"/></g></g><g fill="#060606"><path d="m504.5 49.692h-233.736v-42.192c0-4.142-3.357-7.5-7.5-7.5h-46.793c-4.142 0-7.5 3.358-7.5 7.5v42.192h-91.782c-4.142 0-7.5 3.358-7.5 7.5v64.482c-4.95 2.638-9.641 6.106-13.591 10.098v-22.043c0-13.597-13.527-24.762-33.647-28.469v-16.281c0-4.142-3.358-7.5-7.5-7.5-13.278 0-26.778 5.105-37.039 14.006-11.55 10.02-17.912 23.928-17.912 39.161v31.423c0 9.697 15 9.697 15 0v-31.423c0-16.417 12.217-33.998 32.451-37.529v287.704c-11.77 1.471-23.79 6.179-32.421 14.474-.016-10.213-.03-193.372-.03-193.372 0-9.697-15-9.697-15 0v232.965c0 .421.043.831.11 1.233.737 21.999 21.09 38.439 47.939 38.439 12.999 0 24.629-3.7 33.196-9.797l.004 27.573c.004 25.344 25.351 39.664 48.056 39.664 24.1-.004 48.042-13.577 48.042-39.68l-.017-106.038h213.59l-155.632 132.508c-5.203 4.429-1.971 13.21 4.862 13.21h225.868c4.143 0 7.5-3.358 7.5-7.5v-36.382c0-9.697-15-9.697-15 0v28.882h-197.989l197.989-168.569v98.311c0 9.697 15 9.697 15 0v-60.458h30.982c4.143 0 7.5-3.358 7.5-7.5v-104.684-196.908c0-4.142-3.357-7.5-7.5-7.5zm-7.5 15v181.908h-175.652v-181.908zm-241.236-49.692v191.945h-31.793v-19.167h5.446c9.697 0 9.697-15 0-15h-5.446v-19.653h12.446c9.697 0 9.697-15 0-15h-12.446v-19.653h5.446c4.142 0 7.5-3.358 7.5-7.5s-3.358-7.5-7.5-7.5h-5.446v-19.653h12.446c9.697 0 9.697-15 0-15h-12.446v-19.652h5.446c9.697 0 9.697-15 0-15h-5.446v-19.167zm-137.304 118.78c3.238-1.532 6.634-2.606 10.187-3.223l.046 287.704c-8.355 1.046-21.861 4.328-32.419 14.479-.017-10.073-.033-17.87-.033-18.082l-.04-246.567c-.002-13.439 8.188-27.655 22.259-34.311zm43.884 316.655c-.253-.145-.508-.288-.767-.43-8.602-4.722-19.833-7.356-31.686-7.44l-.001-9.324c3.594-.495 6.008-.458 6.066-.458 4.696-.314 7.275-2.813 7.737-7.497l-.043-271.201c9.942 2.46 18.648 7.5 18.649 13.079zm-81.246-340.706v247.486 35.684c-8.357-4.799-19.65-7.687-32.451-7.773v-9.326c3.596-.495 6.01-.457 6.066-.456 4.696-.314 7.275-2.813 7.738-7.496v-271.249c11.424 2.735 18.647 8.407 18.647 13.13zm0 308.711c0 11.448-15.135 21.12-33.049 21.12-18.798 0-32.974-10.606-32.974-24.672 0-14.244 5.163-27.735 18.572-34.548v12.61c.534 4.906 3.269 7.395 8.204 7.467 10.422-.981 21.943.185 31.261 5.301 5.377 2.953 8.424 6.703 7.986 12.722zm48.205 78.56c-.003 0-.004 0-.008 0-18.793 0-32.969-10.604-32.971-24.666-.002-14.243 5.158-27.737 18.567-34.552l.002 12.611c.535 4.905 3.27 7.394 8.204 7.465 12.723-1.196 39.861.846 39.251 18.016.002 11.449-15.131 21.124-33.045 21.126zm47.996-329.84c-.002-13.502-13.574-24.733-33.652-28.456l-.003-16.288c-.43-4.571-2.93-7.071-7.501-7.499-3.828.001-7.672.439-11.454 1.257v-51.482h84.282v149.752c0 4.142 3.358 7.5 7.5 7.5h46.793c4.143 0 7.5-3.358 7.5-7.5v-149.752h35.584v189.408 97.183h-129.019zm291.864 138.226c-2.656-1.227-5.781-.799-8.008 1.098l-52.617 44.799h-87.19v-89.683h175.652v89.683h-23.482v-39.088c0-2.924-1.7-5.582-4.355-6.809z"/><path d="m357.34 214.917h69.105c1.974 0 3.918-.808 5.311-2.205l34.552-34.525c1.408-1.407 2.199-3.316 2.199-5.306l-.01-69.007c0-4.058-3.443-7.499-7.501-7.499l-69.114.008c-1.987 0-3.895.79-5.3 2.195l-34.538 34.511c-1.394 1.39-2.205 3.344-2.205 5.311v69.017c.001 4.143 3.359 7.5 7.501 7.5zm7.5-69.017h54.105v54.017h-54.105zm69.106 43.421v-47.812l19.556-19.54.007 47.806zm-38.956-77.938 47.89-.006-19.539 19.523h-47.885z"/><path d="m392.813 314.087h-24.851c-9.697 0-9.697 15 0 15h24.851c9.697 0 9.697-15 0-15z"/><path d="m431.639 284.242h-63.677c-9.697 0-9.697 15 0 15h63.677c9.697 0 9.697-15 0-15z"/><path d="m424.727 385.308-90.555 77.1c-5.201 4.429-1.97 13.21 4.862 13.21h90.555c4.143 0 7.5-3.358 7.5-7.5v-77.1c0-5.702-7.202-10.105-12.362-5.71zm-2.638 75.31h-62.677l62.677-53.364z"/></g></g></svg>